<?xml version="1.0" encoding="UTF-8" standalone="no"?>
<svg
   viewBox="0 0 52.351002 52.351002"
   width="52.351002"
   height="52.351002"
   version="1.1"
   id="svg12"
   sodipodi:docname="big-screen-monitor-display.svg"
   xml:space="preserve"
   inkscape:version="1.4.3 (0d15f75042, 2025-12-25)"
   xmlns:inkscape="http://www.inkscape.org/namespaces/inkscape"
   xmlns:sodipodi="http://sodipodi.sourceforge.net/DTD/sodipodi-0.dtd"
   xmlns:xlink="http://www.w3.org/1999/xlink"
   xmlns="http://www.w3.org/2000/svg"
   xmlns:svg="http://www.w3.org/2000/svg"><defs
     id="defs12"><linearGradient
       xlink:href="#i"
       id="k"
       x1="0.050000001"
       x2="1"
       y2="1"
       gradientTransform="matrix(52.351479,0,0,52.351479,-2.379847,-2.3798517)"
       gradientUnits="userSpaceOnUse" /><linearGradient
       id="i"
       x1="0.050000001"
       x2="1"
       y2="1"
       gradientTransform="matrix(22,0,0,22,-56.75,-22.125)"
       gradientUnits="userSpaceOnUse">
            <stop
   offset="0.2"
   stop-color="#7e0000"
   style="stop-color:#000000;stop-opacity:1;"
   id="stop1" />
            <stop
   offset="0.205"
   stop-color="#ae0003"
   style="stop-color:#424242;stop-opacity:1;"
   id="stop2" />
            <stop
   offset="1"
   stop-color="#7e0002"
   style="stop-color:#232323;stop-opacity:1;"
   id="stop3" />
        </linearGradient><style
       id="current-color-scheme"
       type="text/css">
   .ColorScheme-Text { color:#dfdfdf; } .ColorScheme-Highlight { color:#4285f4; } .ColorScheme-NeutralText { color:#ff9800; } .ColorScheme-PositiveText { color:#4caf50; } .ColorScheme-NegativeText { color:#f44336; }
  </style><radialGradient
       id="paint0_radial_3_321"
       cx="0"
       cy="0"
       r="1"
       gradientTransform="matrix(0,5.82083,-5.82083,0,10.522,-5.814)"
       gradientUnits="userSpaceOnUse"><stop
         id="stop180"
         stop-color="#555" /><stop
         id="stop182"
         offset="1"
         stop-color="#222" /></radialGradient><radialGradient
       id="a-6"
       cx="0"
       cy="0"
       r="1"
       gradientTransform="matrix(0,2.91036,-2.91036,0,-23.284,0.264)"
       gradientUnits="userSpaceOnUse"><stop
         id="stop1-3"
         stop-color="#6EBBF7" /><stop
         id="stop2-6"
         offset="1"
         stop-color="#2196F3" /></radialGradient><radialGradient
       xlink:href="#paint0_radial_3_321"
       id="radialGradient26"
       cx="0"
       cy="0"
       r="1"
       gradientTransform="matrix(0,112.14177,-112.14177,0,130.72099,-39.641439)"
       gradientUnits="userSpaceOnUse" /><linearGradient
       id="linearGradient31395"
       x1="12"
       x2="12"
       y1="0"
       y2="12"
       gradientTransform="matrix(0.24253,0,0,0.24253,0.264,16.14)"
       gradientUnits="userSpaceOnUse"
       spreadMethod="pad"><stop
         id="stop31391"
         offset="0"
         style="stop-opacity:1;stop-color:#fff" /><stop
         id="stop31393"
         offset="1"
         style="stop-opacity:1;stop-color:#d9d9d9" /></linearGradient><linearGradient
       xlink:href="#a"
       id="linearGradient8909"
       x1="13.229"
       x2="2.1170001"
       y1="297"
       y2="280.07001"
       gradientTransform="matrix(0.2628,0,0,0.20708,0.94,-41.157)"
       gradientUnits="userSpaceOnUse" /><linearGradient
       id="a"
       x1="13.229"
       x2="2.1170001"
       y1="297"
       y2="280.07001"
       gradientTransform="matrix(0.99324,0,0,0.78268,-16.45,-215.555)"
       gradientUnits="userSpaceOnUse"><stop
         id="stop3327"
         offset="0"
         stop-color="#66bcff"
         style="stop-color:#222;stop-opacity:1" /><stop
         id="stop3329"
         offset="1"
         stop-color="#b29aff"
         style="stop-color:#555;stop-opacity:1" /></linearGradient><style
       id="style125">.st0{display:none}</style><clipPath
       clipPathUnits="userSpaceOnUse"
       id="clipPath1"><rect
         style="opacity:0.521657;fill:#cccccc;stroke-width:0.264583;-inkscape-stroke:none;paint-order:stroke markers fill"
         id="rect2"
         width="31.149696"
         height="17.799826"
         x="-52.650478"
         y="-5.3311357"
         rx="5.1131253"
         ry="5.0943956" /></clipPath></defs><sodipodi:namedview
     id="namedview12"
     pagecolor="#ffffff"
     bordercolor="#000000"
     borderopacity="0.25"
     inkscape:showpageshadow="2"
     inkscape:pageopacity="0.0"
     inkscape:pagecheckerboard="0"
     inkscape:deskcolor="#d1d1d1"
     inkscape:zoom="3.0286458"
     inkscape:cx="-30.211522"
     inkscape:cy="17.004299"
     inkscape:window-width="1716"
     inkscape:window-height="1370"
     inkscape:window-x="0"
     inkscape:window-y="0"
     inkscape:window-maximized="0"
     inkscape:current-layer="svg12" /><!-- Monitor Body --><!-- Screen Inner --><!-- CPU Bar (Yellow) --><!-- RAM Bar (Green) --><!-- GPU Bar (Red) --><!-- Process List Lines --><!-- Stand --><!-- Graph line (Temperature) --><rect
     width="52.351479"
     height="52.351479"
     x="-0.0002389126"
     y="-0.00023840259"
     fill="url(#j)"
     stroke="#808080"
     stroke-opacity="0.2"
     opacity="0.9"
     rx="15.705443"
     style="fill:url(#k);stroke-width:2.37961;-inkscape-stroke:hairline"
     vector-effect="non-scaling-stroke"
     id="rect5-3" /><path
     d="m 31.767595,7.438429 q -0.295072,0 -0.623458,0.05473 c -3.526586,0.590144 -3.37905,4.694975 -3.37905,4.694975 0,0 0,1.818025 1.696663,2.736555 1.411111,0.813828 2.222559,-0.06425 2.360576,-0.202267 0.138018,-0.138018 3.007831,-3.728853 2.546186,3.088737 0,0 1.011335,-1.099381 1.075585,-3.716955 0.06187,-2.617574 -1.622896,-2.779387 -1.622896,-2.779387 0,0 -0.744819,-0.18799 -2.222558,1.40873 -1.244538,1.344481 -1.515814,1.506295 -1.570545,1.522952 h -0.0048 c 0,0 -0.418812,0.295072 -0.468784,-0.444987 -0.04997,-0.74006 -0.209406,-2.979275 2.046467,-4.192878 2.251114,-1.213602 3.350495,1.756154 3.350495,1.756154 0,0 -0.24748,-3.921601 -3.183922,-3.926361 M 25.40447,9.139851 a 1.1969452,1.5967201 77.92 0 0 -0.414053,0.04759 1.1969452,1.5967201 77.92 0 0 -1.308787,1.503915 1.1969452,1.5967201 77.92 0 0 1.808506,0.837624 1.1969452,1.5967201 77.92 0 0 1.313546,-1.506295 1.1969452,1.5967201 77.92 0 0 -1.399212,-0.882836 m -7.431531,0.506857 c 0,0 -1.011335,1.094622 -1.073205,3.712196 -0.06187,2.617574 1.618137,2.774628 1.618137,2.774628 0,0 0.742439,0.18323 2.220178,-1.41111 1.199325,-1.296889 1.499156,-1.494397 1.565785,-1.522952 h 0.01428 c 0,0 0.416432,-0.290313 0.464025,0.447367 0.04759,0.73768 0.209406,2.986414 -2.046467,4.192878 -2.253494,1.206463 -3.348115,-1.756155 -3.348115,-1.756155 0,0 0.285553,4.459395 3.80976,3.87163 3.526586,-0.587764 3.37905,-4.694976 3.37905,-4.694976 0,0 0.0048,-1.810885 -1.696664,-2.731795 -1.411111,-0.813828 -2.224938,0.06425 -2.365335,0.204647 -0.140397,0.140397 -3.000692,3.728853 -2.541427,-3.088738 m 7.781334,2.179726 a 1.2231209,1.2231209 0 0 0 -1.125557,1.315925 1.1898063,1.1898063 0 0 0 0.05473,0.283174 c 0,0 0.709125,2.82698 4.535542,2.917406 0,0 -2.205901,-1.577684 -2.155929,-3.393328 a 1.2231209,1.2231209 0 0 0 -1.308787,-1.123177"
     style="fill:#ffffff;stroke-width:2.37961"
     id="path5" /><path
     id="rect14"
     style="fill:#282832;fill-opacity:1;stroke-width:1.05018"
     d="m 15.398306,27.271278 c -0.872702,0 -1.574219,0.701517 -1.574219,1.574219 0,0.872702 0.701517,1.576172 1.574219,1.576172 H 36.95104 c 0.872702,0 1.576172,-0.70347 1.576172,-1.576172 0,-0.872702 -0.70347,-1.574219 -1.576172,-1.574219 z m 0,5.25 c -0.872702,0 -1.574219,0.70347 -1.574219,1.576172 0,0.872702 0.701517,1.574219 1.574219,1.574219 H 36.95104 c 0.872702,0 1.576172,-0.701517 1.576172,-1.574219 0,-0.872702 -0.70347,-1.576172 -1.576172,-1.576172 z m 0,5.251953 c -0.872702,0 -1.574219,0.701517 -1.574219,1.574219 0,0.872702 0.701517,1.576172 1.574219,1.576172 H 36.95104 c 0.872702,0 1.576172,-0.70347 1.576172,-1.576172 0,-0.872702 -0.70347,-1.574219 -1.576172,-1.574219 z"
     sodipodi:nodetypes="sssssssssssssssssssss" /><path
     id="rect15"
     style="fill:#f9d923;fill-opacity:1;stroke-width:1.05018"
     d="m 15.398438,27.271484 c -0.872702,0 -1.574219,0.701517 -1.574219,1.574219 0,0.872702 0.701517,1.576172 1.574219,1.576172 H 32.75 c 0.872702,0 1.576172,-0.70347 1.576172,-1.576172 0,-0.872702 -0.70347,-1.574219 -1.576172,-1.574219 z"
     sodipodi:nodetypes="sssssss" /><path
     id="rect17"
     style="stroke-width:1.05018;fill:#4dd970;fill-opacity:1"
     d="M 15.398438 32.521484 C 14.525736 32.521484 13.824219 33.224955 13.824219 34.097656 C 13.824219 34.970358 14.525736 35.671875 15.398438 35.671875 L 20.650391 35.671875 C 21.523092 35.671875 22.224609 34.970358 22.224609 34.097656 C 22.224609 33.224955 21.523092 32.521484 20.650391 32.521484 L 15.398438 32.521484 z " /><path
     id="rect19"
     style="fill:#ff5555;fill-opacity:1;stroke-width:1.05018"
     d="m 15.398438,37.773438 c -0.872702,0 -1.574219,0.701517 -1.574219,1.574218 0,0.872702 0.701517,1.576172 1.574219,1.576172 H 27.5 c 0.872702,0 1.574219,-0.70347 1.574219,-1.576172 0,-0.872701 -0.701517,-1.574218 -1.574219,-1.574218 z"
     sodipodi:nodetypes="sssssss" /></svg>
